<?xml version="1.0" encoding="UTF-8" standalone="no"?>
<!-- Created with Inkscape (http://www.inkscape.org/) -->

<svg
   xmlns:dc="http://purl.org/dc/elements/1.1/"
   xmlns:cc="http://creativecommons.org/ns#"
   xmlns:rdf="http://www.w3.org/1999/02/22-rdf-syntax-ns#"
   xmlns:svg="http://www.w3.org/2000/svg"
   xmlns="http://www.w3.org/2000/svg"
   xmlns:sodipodi="http://sodipodi.sourceforge.net/DTD/sodipodi-0.dtd"
   xmlns:inkscape="http://www.inkscape.org/namespaces/inkscape"
   width="744.09448819"
   height="1052.3622047"
   id="svg3017"
   version="1.1"
   inkscape:version="0.48.2 r9819"
   sodipodi:docname="svg2.svg">
  <defs
     id="defs3019" />
  <sodipodi:namedview
     id="base"
     pagecolor="#ffffff"
     bordercolor="#666666"
     borderopacity="1.0"
     inkscape:pageopacity="0.0"
     inkscape:pageshadow="2"
     inkscape:zoom="0.3"
     inkscape:cx="569.28958"
     inkscape:cy="1133.7718"
     inkscape:document-units="px"
     inkscape:current-layer="layer1"
     showgrid="false"
     inkscape:window-width="1280"
     inkscape:window-height="963"
     inkscape:window-x="-9"
     inkscape:window-y="-9"
     inkscape:window-maximized="1" />
  <metadata
     id="metadata3022">
    <rdf:RDF>
      <cc:Work
         rdf:about="">
        <dc:format>image/svg+xml</dc:format>
        <dc:type
           rdf:resource="http://purl.org/dc/dcmitype/StillImage" />
        <dc:title></dc:title>
      </cc:Work>
    </rdf:RDF>
  </metadata>
  <g
     inkscape:label="Layer 1"
     inkscape:groupmode="layer"
     id="layer1">
    <path
       style="fill:#ffbf00;fill-opacity:1;stroke:#000000;stroke-width:1px;stroke-linecap:butt;stroke-linejoin:miter;stroke-opacity:1"
       d="m 329.99999,-57.637818 -110,396.666658 L 79.999993,712.36218 -6.6666667e-6,1062.3621 613.33333,1085.6954 676.66666,-47.637818 l -430,3.333333"
       id="path3915"
       inkscape:connector-curvature="0" />
    <rect
       style="fill:#ffbf00;fill-opacity:1"
       id="rect3917"
       width="423.33334"
       height="1163.3334"
       x="590"
       y="-67.637817" />
    <path
       style="fill:#fffedb;fill-opacity:0.86497891"
       d="m 590.62292,1089.1045 c 0,-7.2373 27.5996,-5.6586 -337.5,-19.3055 C 89.576937,1063.6859 3.9780841,1059.3009 4.0197887,1057.038 4.0547347,1055.1418 21.860521,976.34043 43.588204,881.92376 L 83.09308,710.2571 152.04464,526.92376 220.99619,343.59043 274.08116,152.26327 c 29.19673,-105.229933 53.98698,-192.229932 55.08945,-193.333329 1.10247,-1.103397 60.38024,-2.527581 131.72841,-3.164853 l 129.7239,-1.158676 0,-9.674657 0,-9.674658 210,0 209.99998,0 0,580.000003 0,580 -209.99998,0 c -201.92907,0 -210,-0.2363 -210,-6.1526 z"
       id="path3919"
       inkscape:connector-curvature="0" />
  </g>
</svg>
